<svg xmlns="http://www.w3.org/2000/svg" xmlns:xlink="http://www.w3.org/1999/xlink" width="1920" zoomAndPan="magnify" viewBox="0 0 1440 809.999993" height="1080" preserveAspectRatio="xMidYMid meet" version="1.0"><defs><g/></defs><path fill="#ffffff" d="M 325.894531 278.121094 L 269.546875 379.558594 L 314.09375 379.558594 C 325.515625 379.558594 331.550781 392.695312 324.773438 401.324219 L 323.773438 402.46875 L 230.625 498.253906 C 229.425781 499.453125 228.199219 500.625 226.945312 501.769531 C 225.6875 502.910156 224.402344 504.015625 223.089844 505.09375 C 221.777344 506.171875 220.441406 507.210938 219.074219 508.222656 C 217.710938 509.230469 216.320312 510.203125 214.90625 511.144531 C 213.492188 512.082031 212.058594 512.988281 210.597656 513.851562 C 209.136719 514.71875 207.660156 515.550781 206.15625 516.34375 C 204.65625 517.136719 203.136719 517.890625 201.597656 518.605469 C 200.058594 519.320312 198.503906 520 196.929688 520.636719 C 195.359375 521.273438 193.769531 521.871094 192.167969 522.429688 C 190.5625 522.988281 188.949219 523.503906 187.320312 523.980469 C 185.691406 524.457031 184.050781 524.894531 182.398438 525.289062 C 180.75 525.683594 179.089844 526.035156 177.417969 526.347656 C 175.75 526.65625 174.074219 526.925781 172.394531 527.152344 C 170.710938 527.378906 169.023438 527.5625 167.332031 527.703125 C 165.640625 527.847656 163.949219 527.945312 162.253906 528 C 160.554688 528.058594 158.859375 528.070312 157.160156 528.042969 C 155.464844 528.015625 153.769531 527.941406 152.078125 527.828125 C 150.382812 527.714844 148.691406 527.558594 147.007812 527.359375 C 145.320312 527.160156 143.640625 526.917969 141.96875 526.636719 C 140.296875 526.351562 138.628906 526.027344 136.972656 525.660156 C 135.316406 525.292969 133.667969 524.882812 132.03125 524.433594 C 130.394531 523.984375 128.773438 523.492188 127.160156 522.960938 C 125.546875 522.429688 123.949219 521.855469 122.367188 521.246094 C 120.785156 520.632812 119.21875 519.980469 117.667969 519.289062 C 116.117188 518.601562 114.585938 517.871094 113.070312 517.101562 C 111.558594 516.335938 110.066406 515.527344 108.589844 514.6875 C 107.117188 513.84375 105.667969 512.964844 104.238281 512.046875 C 102.808594 511.132812 101.40625 510.179688 100.023438 509.195312 C 98.644531 508.207031 97.289062 507.1875 95.957031 506.132812 C 94.628906 505.078125 93.324219 503.988281 92.050781 502.867188 C 90.777344 501.75 89.53125 500.597656 88.3125 499.414062 C 87.09375 498.230469 85.910156 497.019531 84.753906 495.777344 C 83.597656 494.53125 82.472656 493.261719 81.378906 491.960938 C 80.289062 490.664062 79.230469 489.335938 78.203125 487.984375 C 77.175781 486.632812 76.1875 485.253906 75.230469 483.851562 C 74.273438 482.453125 73.355469 481.027344 72.46875 479.578125 C 71.585938 478.128906 70.738281 476.660156 69.925781 475.167969 C 69.117188 473.675781 68.34375 472.164062 67.609375 470.636719 C 66.875 469.105469 66.179688 467.558594 65.519531 465.992188 C 64.863281 464.429688 64.246094 462.847656 63.667969 461.25 C 63.09375 459.65625 62.554688 458.046875 62.058594 456.421875 C 61.5625 454.800781 61.105469 453.164062 60.691406 451.519531 C 60.277344 449.875 59.90625 448.21875 59.574219 446.554688 C 59.242188 444.890625 58.953125 443.214844 58.707031 441.539062 C 58.460938 439.859375 58.257812 438.175781 58.09375 436.484375 C 57.933594 434.792969 57.8125 433.101562 57.734375 431.40625 C 57.65625 429.710938 57.625 428.015625 57.632812 426.316406 C 57.640625 424.621094 57.691406 422.925781 57.785156 421.230469 C 57.878906 419.535156 58.015625 417.84375 58.191406 416.15625 C 58.371094 414.46875 58.59375 412.785156 58.855469 411.109375 C 59.117188 409.433594 59.421875 407.761719 59.769531 406.101562 C 60.117188 404.441406 60.507812 402.789062 60.9375 401.148438 C 61.367188 399.503906 61.839844 397.875 62.351562 396.257812 C 62.863281 394.636719 63.414062 393.035156 64.007812 391.445312 C 64.601562 389.851562 65.234375 388.277344 65.90625 386.71875 C 66.578125 385.160156 67.289062 383.621094 68.035156 382.097656 C 68.785156 380.574219 69.574219 379.070312 70.398438 377.589844 C 71.222656 376.105469 72.085938 374.644531 72.984375 373.203125 C 73.882812 371.765625 74.816406 370.347656 75.785156 368.953125 C 76.757812 367.5625 77.761719 366.195312 78.800781 364.851562 C 79.839844 363.507812 80.910156 362.195312 82.015625 360.90625 C 83.121094 359.617188 84.253906 358.355469 85.421875 357.125 C 86.59375 355.894531 87.789062 354.691406 89.019531 353.523438 C 90.246094 352.351562 91.503906 351.210938 92.789062 350.101562 L 197.359375 261.273438 C 207.109375 252.984375 221.851562 261.652344 219.339844 274.207031 L 211.550781 313.074219 L 307.535156 259.746094 C 319.414062 253.160156 332.496094 266.242188 325.894531 278.109375 M 158.84375 379.558594 C 157.351562 379.558594 155.863281 379.628906 154.375 379.773438 C 152.890625 379.914062 151.410156 380.125 149.945312 380.40625 C 148.480469 380.6875 147.027344 381.035156 145.59375 381.457031 C 144.160156 381.875 142.75 382.359375 141.363281 382.910156 C 139.976562 383.464844 138.617188 384.082031 137.289062 384.761719 C 135.960938 385.445312 134.664062 386.1875 133.40625 386.988281 C 132.148438 387.792969 130.929688 388.65625 129.753906 389.574219 C 128.578125 390.496094 127.445312 391.46875 126.363281 392.492188 C 125.277344 393.519531 124.242188 394.597656 123.261719 395.722656 C 122.277344 396.84375 121.351562 398.015625 120.480469 399.226562 C 119.609375 400.4375 118.796875 401.691406 118.042969 402.980469 C 117.289062 404.269531 116.597656 405.589844 115.96875 406.945312 C 115.34375 408.300781 114.78125 409.683594 114.285156 411.089844 C 113.785156 412.5 113.355469 413.929688 112.996094 415.378906 C 112.632812 416.828125 112.34375 418.289062 112.121094 419.765625 C 111.898438 421.242188 111.746094 422.726562 111.664062 424.21875 L 111.59375 426.808594 C 111.59375 428.359375 111.671875 429.902344 111.824219 431.441406 C 111.976562 432.980469 112.203125 434.511719 112.503906 436.027344 C 112.804688 437.546875 113.179688 439.046875 113.628906 440.527344 C 114.078125 442.007812 114.601562 443.460938 115.191406 444.890625 C 115.785156 446.320312 116.445312 447.71875 117.175781 449.082031 C 117.90625 450.449219 118.699219 451.773438 119.558594 453.0625 C 120.417969 454.347656 121.339844 455.589844 122.320312 456.785156 C 123.300781 457.980469 124.339844 459.125 125.433594 460.222656 C 126.527344 461.316406 127.675781 462.351562 128.871094 463.335938 C 130.066406 464.316406 131.308594 465.238281 132.59375 466.097656 C 133.882812 466.957031 135.207031 467.75 136.570312 468.480469 C 137.9375 469.210938 139.335938 469.871094 140.765625 470.464844 C 142.195312 471.054688 143.648438 471.578125 145.128906 472.027344 C 146.609375 472.476562 148.109375 472.851562 149.628906 473.152344 C 151.144531 473.453125 152.675781 473.679688 154.214844 473.832031 C 155.753906 473.984375 157.296875 474.058594 158.84375 474.058594 C 160.394531 474.058594 161.9375 473.984375 163.476562 473.832031 C 165.015625 473.679688 166.546875 473.453125 168.0625 473.152344 C 169.582031 472.851562 171.082031 472.476562 172.5625 472.027344 C 174.042969 471.578125 175.496094 471.054688 176.925781 470.464844 C 178.355469 469.871094 179.753906 469.210938 181.121094 468.480469 C 182.484375 467.75 183.808594 466.957031 185.097656 466.097656 C 186.382812 465.238281 187.625 464.316406 188.820312 463.335938 C 190.015625 462.351562 191.164062 461.316406 192.257812 460.222656 C 193.351562 459.125 194.390625 457.980469 195.371094 456.785156 C 196.351562 455.589844 197.273438 454.347656 198.132812 453.0625 C 198.992188 451.773438 199.785156 450.449219 200.515625 449.082031 C 201.246094 447.71875 201.90625 446.320312 202.5 444.890625 C 203.089844 443.460938 203.613281 442.007812 204.0625 440.527344 C 204.511719 439.046875 204.886719 437.546875 205.1875 436.027344 C 205.488281 434.511719 205.714844 432.980469 205.867188 431.441406 C 206.019531 429.902344 206.09375 428.359375 206.09375 426.808594 C 206.09375 425.261719 206.019531 423.71875 205.867188 422.179688 C 205.714844 420.640625 205.488281 419.109375 205.1875 417.59375 C 204.886719 416.074219 204.511719 414.574219 204.0625 413.09375 C 203.613281 411.613281 203.089844 410.160156 202.5 408.726562 C 201.90625 407.296875 201.246094 405.902344 200.515625 404.535156 C 199.785156 403.171875 198.992188 401.847656 198.132812 400.558594 C 197.273438 399.273438 196.351562 398.03125 195.371094 396.835938 C 194.390625 395.640625 193.351562 394.492188 192.257812 393.398438 C 191.164062 392.304688 190.015625 391.265625 188.820312 390.285156 C 187.625 389.304688 186.382812 388.382812 185.097656 387.523438 C 183.808594 386.664062 182.484375 385.867188 181.121094 385.140625 C 179.753906 384.410156 178.355469 383.75 176.925781 383.15625 C 175.496094 382.566406 174.042969 382.042969 172.5625 381.59375 C 171.082031 381.144531 169.582031 380.769531 168.0625 380.46875 C 166.546875 380.167969 165.015625 379.941406 163.476562 379.789062 C 161.9375 379.636719 160.394531 379.558594 158.84375 379.558594 " fill-opacity="1" fill-rule="nonzero"/><g fill="#ffffff" fill-opacity="1"><g transform="translate(419.897769, 485.685288)"><g><path d="M 124.8125 -48.125 L 129.328125 -51.375 C 135.015625 -54.71875 139.023438 -56.390625 141.359375 -56.390625 C 146.535156 -56.390625 152.132812 -51.710938 158.15625 -42.359375 C 161.832031 -36.503906 163.671875 -31.820312 163.671875 -28.3125 C 163.671875 -24.8125 162.539062 -21.890625 160.28125 -19.546875 C 158.03125 -17.210938 155.398438 -15.125 152.390625 -13.28125 C 149.378906 -11.445312 146.492188 -9.691406 143.734375 -8.015625 C 140.984375 -6.347656 135.347656 -4.175781 126.828125 -1.5 C 118.304688 1.164062 110.078125 2.5 102.140625 2.5 C 94.203125 2.5 86.179688 1.457031 78.078125 -0.625 C 69.972656 -2.71875 61.617188 -6.226562 53.015625 -11.15625 C 44.410156 -16.082031 36.679688 -22.097656 29.828125 -29.203125 C 22.972656 -36.304688 17.332031 -45.410156 12.90625 -56.515625 C 8.476562 -67.628906 6.265625 -79.703125 6.265625 -92.734375 C 6.265625 -105.765625 8.4375 -117.585938 12.78125 -128.203125 C 17.125 -138.816406 22.675781 -147.585938 29.4375 -154.515625 C 36.207031 -161.453125 43.941406 -167.257812 52.640625 -171.9375 C 69.015625 -180.957031 85.472656 -185.46875 102.015625 -185.46875 C 109.867188 -185.46875 117.847656 -184.253906 125.953125 -181.828125 C 134.054688 -179.410156 140.195312 -176.953125 144.375 -174.453125 L 150.390625 -170.9375 C 153.390625 -169.101562 155.726562 -167.597656 157.40625 -166.421875 C 161.75 -162.910156 163.921875 -158.941406 163.921875 -154.515625 C 163.921875 -150.085938 162.164062 -145.453125 158.65625 -140.609375 C 152.132812 -131.585938 146.285156 -127.078125 141.109375 -127.078125 C 138.097656 -127.078125 133.835938 -128.914062 128.328125 -132.59375 C 121.304688 -138.269531 111.945312 -141.109375 100.25 -141.109375 C 89.394531 -141.109375 78.703125 -137.347656 68.171875 -129.828125 C 63.160156 -126.148438 58.984375 -120.96875 55.640625 -114.28125 C 52.296875 -107.601562 50.625 -100.046875 50.625 -91.609375 C 50.625 -83.171875 52.296875 -75.609375 55.640625 -68.921875 C 58.984375 -62.242188 63.242188 -56.984375 68.421875 -53.140625 C 78.617188 -45.785156 89.226562 -42.109375 100.25 -42.109375 C 105.4375 -42.109375 110.328125 -42.773438 114.921875 -44.109375 C 119.515625 -45.453125 122.8125 -46.789062 124.8125 -48.125 Z M 124.8125 -48.125 "/></g></g></g><g fill="#ffffff" fill-opacity="1"><g transform="translate(592.339568, 485.685288)"><g><path d="M 53.140625 -114.546875 C 60.992188 -126.410156 70.429688 -132.34375 81.453125 -132.34375 C 98.503906 -132.34375 111.207031 -125.070312 119.5625 -110.53125 C 121.394531 -113.039062 123.601562 -115.671875 126.1875 -118.421875 C 128.78125 -121.179688 132.914062 -124.191406 138.59375 -127.453125 C 144.28125 -130.710938 150.132812 -132.34375 156.15625 -132.34375 C 169.519531 -132.34375 180.710938 -127.203125 189.734375 -116.921875 C 198.753906 -106.648438 203.265625 -89.648438 203.265625 -65.921875 L 203.265625 -22.0625 C 203.265625 -18.21875 203.140625 -15.332031 202.890625 -13.40625 C 202.640625 -11.488281 201.847656 -9.273438 200.515625 -6.765625 C 198.335938 -2.253906 191.90625 0 181.21875 0 C 170.6875 0 164.25 -2.335938 161.90625 -7.015625 C 160.738281 -9.523438 160.03125 -11.738281 159.78125 -13.65625 C 159.53125 -15.582031 159.40625 -18.46875 159.40625 -22.3125 L 159.40625 -66.171875 C 159.40625 -80.703125 154.226562 -87.96875 143.875 -87.96875 C 138.019531 -87.96875 134.046875 -86.046875 131.953125 -82.203125 C 129.867188 -78.367188 128.828125 -72.941406 128.828125 -65.921875 L 128.828125 -22.0625 C 128.828125 -18.050781 128.703125 -15.125 128.453125 -13.28125 C 128.203125 -11.445312 127.410156 -9.273438 126.078125 -6.765625 C 123.734375 -2.253906 117.210938 0 106.515625 0 C 95.992188 0 89.5625 -2.335938 87.21875 -7.015625 C 86.050781 -9.523438 85.34375 -11.738281 85.09375 -13.65625 C 84.84375 -15.582031 84.71875 -18.46875 84.71875 -22.3125 L 84.71875 -66.171875 C 84.71875 -80.703125 79.535156 -87.96875 69.171875 -87.96875 C 59.148438 -87.96875 54.140625 -80.703125 54.140625 -66.171875 L 54.140625 -21.8125 C 54.140625 -17.96875 54.015625 -15.082031 53.765625 -13.15625 C 53.515625 -11.238281 52.71875 -9.023438 51.375 -6.515625 C 48.875 -2.171875 42.359375 0 31.828125 0 C 21.304688 0 14.875 -2.253906 12.53125 -6.765625 C 11.363281 -9.273438 10.65625 -11.445312 10.40625 -13.28125 C 10.15625 -15.125 10.03125 -18.050781 10.03125 -22.0625 L 10.03125 -110.28125 C 10.03125 -114.125 10.15625 -117.003906 10.40625 -118.921875 C 10.65625 -120.847656 11.445312 -122.984375 12.78125 -125.328125 C 15.289062 -129.835938 21.222656 -132.09375 30.578125 -132.09375 C 39.929688 -132.09375 46.03125 -130.585938 48.875 -127.578125 C 51.71875 -124.566406 53.140625 -120.222656 53.140625 -114.546875 Z M 53.140625 -114.546875 "/></g></g></g><g fill="#ffffff" fill-opacity="1"><g transform="translate(807.89177, 485.685288)"><g><path d="M 98.625 -187.09375 C 99.875 -189.519531 102.085938 -191.234375 105.265625 -192.234375 C 108.441406 -193.242188 112.660156 -193.75 117.921875 -193.75 C 123.191406 -193.75 127.410156 -193.242188 130.578125 -192.234375 C 133.753906 -191.234375 135.96875 -189.476562 137.21875 -186.96875 C 138.476562 -184.46875 139.234375 -182.253906 139.484375 -180.328125 C 139.734375 -178.410156 139.859375 -175.53125 139.859375 -171.6875 L 139.859375 -22.0625 C 139.859375 -18.21875 139.734375 -15.332031 139.484375 -13.40625 C 139.234375 -11.488281 138.4375 -9.359375 137.09375 -7.015625 C 134.59375 -2.503906 127.535156 -0.25 115.921875 -0.25 C 104.304688 -0.25 97.832031 -4.34375 96.5 -12.53125 C 89.476562 -4.507812 79.703125 -0.5 67.171875 -0.5 C 52.128906 -0.5 38.425781 -7.054688 26.0625 -20.171875 C 13.695312 -33.296875 7.515625 -48.585938 7.515625 -66.046875 C 7.515625 -83.503906 13.738281 -98.832031 26.1875 -112.03125 C 38.632812 -125.238281 52.296875 -131.84375 67.171875 -131.84375 C 79.535156 -131.84375 89.144531 -127.664062 96 -119.3125 L 96 -171.9375 C 96 -175.78125 96.125 -178.660156 96.375 -180.578125 C 96.625 -182.503906 97.375 -184.675781 98.625 -187.09375 Z M 57.890625 -50.875 C 62.242188 -46.363281 67.507812 -44.109375 73.6875 -44.109375 C 79.875 -44.109375 85.015625 -46.363281 89.109375 -50.875 C 93.203125 -55.382812 95.25 -60.351562 95.25 -65.78125 C 95.25 -71.21875 93.285156 -76.273438 89.359375 -80.953125 C 85.429688 -85.628906 80.125 -87.96875 73.4375 -87.96875 C 66.75 -87.96875 61.398438 -85.671875 57.390625 -81.078125 C 53.378906 -76.484375 51.375 -71.425781 51.375 -65.90625 C 51.375 -60.394531 53.546875 -55.382812 57.890625 -50.875 Z M 57.890625 -50.875 "/></g></g></g><g fill="#ffffff" fill-opacity="1"><g transform="translate(960.031579, 485.685288)"><g><path d="M 6.265625 -65.921875 C 6.265625 -85.972656 13.28125 -102.515625 27.3125 -115.546875 C 41.351562 -128.578125 57.394531 -135.09375 75.4375 -135.09375 C 93.488281 -135.09375 109.445312 -128.617188 123.3125 -115.671875 C 137.1875 -102.722656 144.125 -86.222656 144.125 -66.171875 C 144.125 -52.296875 140.53125 -39.96875 133.34375 -29.1875 C 126.15625 -18.414062 117.421875 -10.484375 107.140625 -5.390625 C 96.867188 -0.296875 86.21875 2.25 75.1875 2.25 C 64.164062 2.25 53.472656 -0.460938 43.109375 -5.890625 C 32.753906 -11.316406 24.023438 -19.335938 16.921875 -29.953125 C 9.816406 -40.566406 6.265625 -52.554688 6.265625 -65.921875 Z M 58.640625 -48 C 63.992188 -43.90625 69.425781 -41.859375 74.9375 -41.859375 C 80.457031 -41.859375 85.972656 -43.945312 91.484375 -48.125 C 96.992188 -52.300781 99.75 -58.484375 99.75 -66.671875 C 99.75 -74.859375 97.160156 -80.957031 91.984375 -84.96875 C 86.804688 -88.976562 81.207031 -90.984375 75.1875 -90.984375 C 69.175781 -90.984375 63.578125 -88.894531 58.390625 -84.71875 C 53.210938 -80.539062 50.625 -74.398438 50.625 -66.296875 C 50.625 -58.191406 53.296875 -52.09375 58.640625 -48 Z M 58.640625 -48 "/></g></g></g><g fill="#ffffff" fill-opacity="1"><g transform="translate(1112.672637, 485.685288)"><g><path d="M 51.375 -66.046875 C 51.375 -58.941406 53.710938 -53.425781 58.390625 -49.5 C 63.078125 -45.570312 68.050781 -43.609375 73.3125 -43.609375 C 78.570312 -43.609375 83.5 -45.15625 88.09375 -48.25 C 92.695312 -51.34375 96.414062 -52.890625 99.25 -52.890625 C 104.257812 -52.890625 110.359375 -48.457031 117.546875 -39.59375 C 121.390625 -34.75 123.3125 -30.40625 123.3125 -26.5625 C 123.3125 -20.21875 118.71875 -14.285156 109.53125 -8.765625 C 100.007812 -2.085938 88.3125 1.25 74.4375 1.25 C 58.894531 1.25 43.941406 -4.347656 29.578125 -15.546875 C 22.722656 -20.890625 17.125 -28.03125 12.78125 -36.96875 C 8.4375 -45.90625 6.265625 -55.765625 6.265625 -66.546875 C 6.265625 -77.328125 8.4375 -87.101562 12.78125 -95.875 C 17.125 -104.644531 22.722656 -111.703125 29.578125 -117.046875 C 43.441406 -128.078125 58.226562 -133.59375 73.9375 -133.59375 C 80.289062 -133.59375 86.472656 -132.710938 92.484375 -130.953125 C 98.503906 -129.203125 102.929688 -127.492188 105.765625 -125.828125 L 109.78125 -123.3125 C 112.789062 -121.3125 115.128906 -119.722656 116.796875 -118.546875 C 121.140625 -115.210938 123.3125 -111.410156 123.3125 -107.140625 C 123.3125 -102.878906 121.554688 -98.078125 118.046875 -92.734375 C 112.035156 -83.546875 106.269531 -78.953125 100.75 -78.953125 C 97.582031 -78.953125 93.070312 -80.789062 87.21875 -84.46875 C 84.21875 -87.3125 79.914062 -88.734375 74.3125 -88.734375 C 68.71875 -88.734375 63.492188 -86.726562 58.640625 -82.71875 C 53.796875 -78.707031 51.375 -73.148438 51.375 -66.046875 Z M 51.375 -66.046875 "/></g></g></g><g fill="#ffffff" fill-opacity="1"><g transform="translate(1244.510353, 485.685288)"><g><path d="M 11.03125 -11.78125 C 7.851562 -13.78125 6.265625 -16.953125 6.265625 -21.296875 C 6.265625 -25.648438 9.441406 -32.253906 15.796875 -41.109375 C 17.628906 -43.941406 20.59375 -45.359375 24.6875 -45.359375 C 28.78125 -45.359375 34.332031 -43.3125 41.34375 -39.21875 C 48.363281 -35.125 54.71875 -33.078125 60.40625 -33.078125 C 70.59375 -33.078125 75.6875 -35.082031 75.6875 -39.09375 C 75.6875 -42.269531 70.09375 -44.613281 58.90625 -46.125 C 48.375 -47.625 37.929688 -51.546875 27.578125 -57.890625 C 22.722656 -60.898438 18.707031 -65.617188 15.53125 -72.046875 C 12.363281 -78.484375 10.78125 -86.132812 10.78125 -95 C 10.78125 -121.394531 28.910156 -134.59375 65.171875 -134.59375 C 77.035156 -134.59375 89.234375 -131.753906 101.765625 -126.078125 C 107.609375 -123.398438 110.53125 -120.054688 110.53125 -116.046875 C 110.53125 -112.035156 108.691406 -107.101562 105.015625 -101.25 C 101.335938 -95.40625 97.578125 -92.484375 93.734375 -92.484375 C 91.734375 -92.484375 88.015625 -93.734375 82.578125 -96.234375 C 77.148438 -98.742188 71.265625 -100 64.921875 -100 C 55.054688 -100 50.125 -98.160156 50.125 -94.484375 C 50.125 -89.472656 55.804688 -86.21875 67.171875 -84.71875 C 78.203125 -83.550781 88.894531 -80.375 99.25 -75.1875 C 104.09375 -72.851562 108.144531 -68.800781 111.40625 -63.03125 C 114.664062 -57.269531 116.296875 -50.046875 116.296875 -41.359375 C 116.296875 -32.671875 114.664062 -25.273438 111.40625 -19.171875 C 108.144531 -13.078125 103.59375 -8.523438 97.75 -5.515625 C 87.050781 -0.335938 73.640625 2.25 57.515625 2.25 C 41.390625 2.25 25.894531 -2.425781 11.03125 -11.78125 Z M 11.03125 -11.78125 "/></g></g></g></svg>